<svg xmlns="http://www.w3.org/2000/svg" shape-rendering="geometricPrecision" text-rendering="geometricPrecision" image-rendering="optimizeQuality" fill-rule="evenodd" clip-rule="evenodd" viewBox="0 0 512 406.518"><path fill-rule="nonzero" d="M50.187 135.359c0-24.751 10.033-47.159 26.252-63.377 16.219-16.22 38.626-26.252 63.378-26.252 17.992 0 34.747 5.303 48.787 14.431-2.865 2.288-6.142 4.886-9.675 7.715a77.54 77.54 0 00-34.226-10.352v10.341h-14.137v-9.949c-15.484 1.83-29.578 8.196-40.916 17.732l7.759 7.76-9.994 9.995-7.719-7.72c-11.159 13.49-17.867 30.8-17.867 49.676H50.187zm235.436-76.625h142.676v11.569H285.623V58.734zM512 0v339.709H336.768v34.199h51.215v32.61H122.929v-32.61h54.847v-34.199H0V0h512zM15.281 296.178H496.65V15.276H15.281v280.902zm61.316-48.007h145.332v10.839H76.597v-10.839zm-20.586-.347h11.344v11.532H56.011v-11.532zm20.586-32.019h145.332v10.839H76.597v-10.839zm-20.586-.348h11.344v11.532H56.011v-11.532zm20.586-32.023h145.332v10.839H76.597v-10.839zm-20.586-.347h11.344v11.532H56.011v-11.532zm244.507 4.247h20.636a2.17 2.17 0 012.161 2.162v59.943h15.02v-37.057c0-1.19.971-2.163 2.161-2.163h20.636c1.19 0 2.163.979 2.163 2.163v37.057h15.018v-84.625c0-1.19.973-2.16 2.161-2.16h20.637c1.192 0 2.165.981 2.165 2.16v84.625h15.02v-50.716c0-1.19.972-2.162 2.162-2.162h20.636a2.17 2.17 0 012.163 2.162v50.716h12.728v8.302H285.624v-8.302h12.731v-59.943c0-1.189.973-2.162 2.163-2.162zm-14.895-63.844h170.356v11.532H285.623V123.49zm0-32.37h170.356v11.532H285.623V91.12zm-77.555-13.857c13.33 15.646 21.378 35.932 21.378 58.096h-11.642c0-18.491-6.437-35.482-17.19-48.848l7.454-9.248z"/><path fill="#EF1C25" d="M203.602 58.91l-71.725 64.146c-13.622 11.254 4.597 30.196 16.888 14.071l59.647-74.002-4.81-4.215z"/></svg>