<?xml version="1.0" encoding="iso-8859-1"?>
<!-- Uploaded to: SVG Repo, www.svgrepo.com, Generator: SVG Repo Mixer Tools -->
<svg height="800px" width="800px" version="1.1" id="Layer_1" xmlns="http://www.w3.org/2000/svg" xmlns:xlink="http://www.w3.org/1999/xlink" 
	 viewBox="0 0 512 512" xml:space="preserve">
<path style="fill:#FEA921;" d="M498.023,467.99l-24.554,24.554c-8.331,8.331-21.923,8.044-29.894-0.632L65.721,95.519
	c-7.509-8.172-7.242-20.81,0.605-28.658l6.014-6.014c7.848-7.848,20.486-8.115,28.658-0.605l396.392,377.853
	C506.067,446.067,506.354,459.659,498.023,467.99z"/>
<path style="fill:#E58200;" d="M497.391,438.096L100.999,60.243c-8.172-7.509-20.81-7.242-28.658,0.605l-6.014,6.014
	c-2.104,2.104-3.645,4.559-4.656,7.174c7.137-2.757,15.503-1.445,21.484,4.05L479.547,455.94c8.675,7.971,8.963,21.563,0.632,29.894
	l17.843-17.843C506.354,459.659,506.067,446.067,497.391,438.096z"/>
<g>
	<path style="fill:#C7C5CB;" d="M176.35,16.388l-16.587,11.114l-23.839,15.974l-0.593,0.397l-25.307,16.956
		c-0.962,0.644-1.86,1.382-2.678,2.201l-94.222,94.222c-6.951,6.951-6.951,18.222,0,25.173l9.182,9.182l22.299,22.299
		c6.951,6.951,18.222,6.951,25.173,0l94.222-94.222c0.82-0.82,1.556-1.716,2.201-2.678l44.441-66.326
		c4.732-7.062,3.81-16.484-2.201-22.495l-9.597-9.597C192.834,12.578,183.412,11.656,176.35,16.388z"/>
	<path style="fill:#C7C5CB;" d="M348.608,99.606l-2.774,49.961L124.171,346.533c-2.543-1.14-5.293-1.83-8.129-1.998l-41.973-2.476
		c-6.148-0.363-12.189,1.732-16.793,5.822l-31.432,27.93c-4.604,4.092-7.394,9.843-7.757,15.992l-2.477,41.975
		c-0.363,6.148,1.732,12.189,5.824,16.793l27.93,31.432c4.092,4.604,9.843,7.394,15.992,7.757l41.975,2.477
		c6.148,0.363,12.189-1.732,16.793-5.822l31.432-27.93c4.604-4.09,7.394-9.843,7.757-15.992l2.477-41.975
		c0.157-2.673-0.15-5.324-0.883-7.847l221.956-197.227l49.503,2.921c7.499,0.442,14.865-2.112,20.48-7.102l28.506-25.33
		c5.615-4.989,9.017-12.005,9.46-19.503l1.605-27.201c0.492-8.332-9.335-13.097-15.574-7.554l-46.602,41.41
		c-3.867,3.437-9.788,3.087-13.225-0.781l-29.345-33.025c-3.437-3.867-3.087-9.788,0.781-13.225l45.617-40.535
		c6.238-5.544,2.66-15.863-5.671-16.355l-25.34-1.495c-7.499-0.442-14.865,2.112-20.48,7.102l-28.506,25.33
		C352.453,85.092,349.05,92.107,348.608,99.606z M123.447,438.021l-15.872,14.104c-2.325,2.066-5.375,3.123-8.48,2.941
		l-21.195-1.251c-3.104-0.184-6.009-1.592-8.076-3.916l-14.104-15.871c-2.065-2.325-3.123-5.375-2.941-8.48l1.25-21.195
		c0.184-3.104,1.593-6.009,3.918-8.076l15.872-14.104c2.325-2.065,5.375-3.123,8.48-2.941l21.195,1.25
		c3.104,0.184,6.009,1.592,8.076,3.916l14.104,15.872c2.065,2.325,3.123,5.375,2.941,8.479l-1.25,21.195
		C127.181,433.051,125.772,435.956,123.447,438.021z"/>
</g>
<g>
	<path style="fill:#AEADB3;" d="M480.84,111.675l-3.527,3.134l-0.787,13.338c-0.442,7.499-3.845,14.514-9.46,19.503l-28.506,25.33
		c-5.615,4.989-12.982,7.544-20.481,7.102l-49.503-2.921L146.621,374.388c0.733,2.523,1.04,5.174,0.883,7.847l-2.477,41.975
		c-0.363,6.148-3.153,11.901-7.757,15.992l-31.432,27.93c-4.604,4.092-10.645,6.185-16.793,5.822l-41.975-2.476
		c-3.32-0.196-6.514-1.121-9.406-2.637l11.697,13.163c4.092,4.604,9.843,7.394,15.992,7.757l41.975,2.477
		c6.148,0.363,12.189-1.732,16.793-5.822l31.432-27.93c4.604-4.09,7.394-9.843,7.757-15.992l2.477-41.975
		c0.157-2.673-0.15-5.324-0.883-7.847L386.86,195.445l49.503,2.921c7.499,0.442,14.865-2.112,20.48-7.101l28.506-25.33
		c5.615-4.989,9.017-12.005,9.46-19.503l1.604-27.201C496.906,110.897,487.079,106.131,480.84,111.675z"/>
	<path style="fill:#AEADB3;" d="M374.165,87.772c-3.868,3.437-4.217,9.357-0.781,13.225l29.345,33.025
		c1.253,1.41,2.838,2.347,4.534,2.809l-15.595-17.551c-3.437-3.867-3.087-9.789,0.781-13.225l45.617-40.535
		c6.239-5.543,2.66-15.863-5.671-16.355l-13.863-0.817L374.165,87.772z"/>
	<path style="fill:#AEADB3;" d="M56.504,434.907l-0.783-0.881c-2.065-2.325-3.123-5.375-2.941-8.48l1.25-21.195
		c0.184-3.104,1.593-6.009,3.918-8.076l15.872-14.104c2.325-2.065,5.375-3.123,8.48-2.941l21.195,1.25
		c1.072,0.063,2.115,0.282,3.113,0.624l-13.32-14.991c-2.065-2.325-4.97-3.734-8.076-3.916l-21.195-1.25
		c-3.104-0.184-6.155,0.874-8.48,2.941l-15.872,14.103c-2.325,2.066-3.734,4.97-3.918,8.076l-1.25,21.195
		c-0.184,3.104,0.874,6.155,2.941,8.48l14.104,15.871C52.895,433.137,54.611,434.258,56.504,434.907z"/>
	<path style="fill:#AEADB3;" d="M198.845,18.589c-6.011-6.011-15.433-6.933-22.495-2.201l-9.639,6.459l27.745,26.398l10.428,10.03
		l5.758-8.594c4.732-7.062,3.81-16.484-2.201-22.495L198.845,18.589z"/>
</g>
<g>
	<path style="fill:#D8D8DA;" d="M364.111,160.207l-6.047-24.454c-0.65-2.627-4.498-2.246-4.618,0.459l-1.067,23.991L140.074,352.455
		l-24.529-1.311c-2.69-0.143-3.459,3.619-0.929,4.543l22.254,8.128c5.906,2.157,12.519,0.884,17.202-3.311l204.873-183.528
		C363.636,172.772,365.623,166.321,364.111,160.207z"/>
	<path style="fill:#D8D8DA;" d="M151.075,53.637l-30.348,20.334c-0.855,0.704-1.706,1.402-2.561,2.104l-80.576,80.577
		c-6.282,6.282-6.282,16.467,0,22.749l10.04,10.04c6.282,6.282,16.467,6.282,22.749,0l80.577-80.577
		c0.702-0.855,1.401-1.705,2.103-2.56l20.334-30.349c4.359-6.506,3.4-15.205-2.272-20.604l0,0
		C165.664,50.156,157.334,49.444,151.075,53.637z"/>
</g>
<g>
	<path style="fill:#1A1A1A;" d="M103.962,372.586l-21.196-1.251c-5.252-0.317-10.278,1.441-14.2,4.924l-15.872,14.104
		c-3.922,3.484-6.251,8.286-6.561,13.524l-1.25,21.194c-0.309,5.236,1.439,10.279,4.924,14.201l14.104,15.872
		c3.484,3.921,8.285,6.251,13.522,6.56l21.196,1.251c0.394,0.023,0.788,0.035,1.18,0.035c4.81,0,9.394-1.737,13.019-4.959
		l15.872-14.104c3.923-3.485,6.252-8.289,6.56-13.522l1.251-21.195c0.309-5.236-1.44-10.28-4.924-14.201l-14.103-15.87
		C114.001,375.225,109.199,372.895,103.962,372.586z M120.716,408.284l-1.251,21.198c-0.06,1.016-0.512,1.948-1.273,2.625
		l-15.87,14.103c-0.751,0.668-1.763,1.013-2.76,0.957l-21.194-1.251c-1.003-0.059-1.96-0.524-2.627-1.274l-14.103-15.87
		c-0.678-0.763-1.018-1.743-0.957-2.76l1.25-21.194c0.06-1.018,0.512-1.951,1.274-2.629l15.872-14.103
		c0.705-0.627,1.596-0.964,2.529-0.964c0.076,0,0.153,0.002,0.23,0.006l21.195,1.251c1.018,0.06,1.951,0.513,2.627,1.274
		l14.104,15.871C120.427,406.277,120.776,407.282,120.716,408.284z"/>
	<path style="fill:#1A1A1A;" d="M502.804,432.325L324,261.884l65.665-58.349l46.232,2.727c9.651,0.575,18.964-2.656,26.2-9.085
		l28.506-25.33c7.234-6.428,11.533-15.289,12.104-24.951l1.604-27.202c0.413-7.002-3.399-13.504-9.708-16.565
		c-6.309-3.058-13.776-2.028-19.017,2.631l-46.604,41.41c-0.373,0.331-0.775,0.387-1.053,0.365
		c-0.275-0.016-0.672-0.114-1.003-0.486l-29.344-33.025c-0.331-0.372-0.381-0.778-0.366-1.054c0.017-0.274,0.114-0.672,0.486-1.003
		l45.617-40.534c5.243-4.659,7.146-11.951,4.849-18.577c-2.297-6.627-8.307-11.176-15.308-11.588l-25.34-1.495
		c-9.656-0.569-18.964,2.656-26.2,9.085l-28.506,25.33c-7.234,6.43-11.533,15.291-12.104,24.979l-2.592,46.675l-70.312,62.478
		l-93.528-89.153l42.937-64.082c6.814-10.17,5.477-23.835-3.18-32.492l-9.597-9.597c-8.658-8.659-22.323-9.994-32.493-3.179
		l-66.013,44.232c-5.238-4.628-11.939-7.177-18.943-7.177c-7.646,0-14.835,2.978-20.24,8.384l-6.012,6.013
		c-10.614,10.613-11.219,27.426-1.576,38.761l-17.205,17.205c-3.089,3.089-3.089,8.099,0,11.187c3.091,3.089,8.099,3.089,11.188,0
		l22.631-22.631l35.496-35.496c0.002-0.002,0.003-0.003,0.005-0.005l1.666-1.666c0.455-0.455,0.955-0.866,1.487-1.223l66.326-44.441
		c3.914-2.622,9.167-2.105,12.498,1.223l9.597,9.597c3.33,3.33,3.845,8.586,1.224,12.497l-44.441,66.325
		c-0.358,0.534-0.769,1.034-1.224,1.489l-21.271,21.271l-17.252,17.252c-0.001,0.001-0.002,0.003-0.004,0.004L64.187,208.31
		c-3.855,3.855-10.13,3.857-13.987,0l-31.482-31.482c-1.868-1.868-2.896-4.351-2.896-6.992s1.029-5.124,2.898-6.992l12.338-12.339
		c3.089-3.09,3.089-8.099-0.001-11.187c-3.088-3.091-8.098-3.09-11.187,0l-12.337,12.34C2.675,156.513,0,162.969,0,169.837
		c0,6.868,2.675,13.324,7.532,18.18L39.014,219.5c5.012,5.011,11.595,7.518,18.179,7.518s13.168-2.506,18.182-7.519l49.968-49.968
		l85.35,89.537l-28.839,25.626c-3.267,2.902-3.561,7.903-0.659,11.168c2.902,3.265,7.903,3.56,11.168,0.659L351.089,155.48
		c1.576-1.4,2.527-3.371,2.644-5.474l2.773-49.935c0.321-5.442,2.742-10.434,6.817-14.055l28.505-25.33
		c4.077-3.622,9.323-5.434,14.76-5.118l25.34,1.495c0.241,0.015,0.971,0.058,1.291,0.977c0.319,0.92-0.229,1.406-0.409,1.566
		l-45.618,40.535c-3.45,3.066-5.499,7.292-5.771,11.899c-0.272,4.607,1.267,9.045,4.332,12.494l29.344,33.025
		c3.065,3.45,7.291,5.5,11.898,5.772c4.616,0.278,9.047-1.267,12.495-4.332l46.603-41.41c0.18-0.16,0.727-0.647,1.604-0.222
		c0.875,0.424,0.832,1.156,0.817,1.397l-1.604,27.201c-0.322,5.444-2.742,10.435-6.817,14.056l-28.506,25.33
		c-4.075,3.621-9.309,5.445-14.76,5.118l-49.503-2.921c-2.094-0.12-4.153,0.591-5.72,1.983L159.649,386.758
		c-2.284,2.028-3.194,5.19-2.343,8.122c0.49,1.686,0.686,3.426,0.583,5.172l-2.477,41.973c-0.242,4.085-2.058,7.83-5.115,10.546
		l-31.432,27.93c-3.057,2.717-6.983,4.078-11.073,3.839l-41.973-2.476c-4.083-0.242-7.829-2.058-10.546-5.116l-27.93-31.432
		c-2.716-3.057-4.08-6.989-3.839-11.072l2.477-41.975c0.24-4.083,2.057-7.828,5.115-10.545l31.433-27.93
		c3.056-2.715,6.972-4.073,11.072-3.838l41.972,2.476c1.848,0.11,3.652,0.554,5.363,1.32c2.84,1.272,6.163,0.762,8.489-1.306
		l40.598-36.075c3.267-2.902,3.561-7.903,0.659-11.168c-2.904-3.266-7.905-3.562-11.168-0.659l-37.147,33.008
		c-1.916-0.49-3.874-0.796-5.862-0.913l-41.973-2.476c-8.31-0.489-16.299,2.283-22.515,7.805l-31.432,27.93
		c-6.218,5.524-9.911,13.139-10.4,21.44l-2.477,41.975c-0.489,8.302,2.284,16.299,7.807,22.514l27.93,31.432
		c5.524,6.217,13.139,9.91,21.441,10.399l41.973,2.476c0.629,0.037,1.253,0.056,1.876,0.056c7.623,0,14.891-2.755,20.637-7.861
		l31.432-27.93c6.216-5.523,9.91-13.136,10.4-21.441l2.477-41.975c0.107-1.808,0.056-3.612-0.151-5.398l90.572-80.481
		l173.701,182.221c5.403,5.846,13.062,9.197,21.025,9.197c7.642,0,14.829-2.977,20.236-8.382l24.554-24.555
		c5.567-5.567,8.543-12.97,8.375-20.842C511.828,444.895,508.566,437.648,502.804,432.325z M71.922,72.456l6.013-6.014
		c2.417-2.418,5.633-3.749,9.052-3.749c2.612,0,5.131,0.791,7.253,2.253L70.424,88.763C66.957,83.748,67.486,76.892,71.922,72.456z
		 M163.819,131.054l92.118,87.81l-33.412,29.688l-85.992-90.212L163.819,131.054z M492.429,462.396l-24.552,24.554
		c-2.419,2.418-5.632,3.75-9.048,3.749c-3.626,0-6.975-1.47-9.428-4.139c-0.033-0.036-0.066-0.071-0.099-0.105L275.941,304.588
		l36.191-32.159l179.802,171.392c0.035,0.034,0.07,0.066,0.105,0.099c2.594,2.383,4.063,5.634,4.137,9.155
		C496.25,456.596,494.919,459.906,492.429,462.396z"/>
</g>
</svg>