<?xml version="1.0" encoding="iso-8859-1"?>
<!-- Uploaded to: SVG Repo, www.svgrepo.com, Generator: SVG Repo Mixer Tools -->
<svg version="1.1" id="Layer_1" xmlns="http://www.w3.org/2000/svg" xmlns:xlink="http://www.w3.org/1999/xlink" 
	 viewBox="0 0 512 512" xml:space="preserve">
<rect x="419.201" y="134.671" style="fill:#ECB593;" width="30.207" height="87.04"/>
<rect x="390.357" y="7.604" style="fill:#FFB655;" width="41.416" height="30.436"/>
<g>
	<rect x="377.319" y="156.439" style="fill:#ECB593;" width="72.086" height="65.283"/>
	<rect x="175.743" y="261.069" style="fill:#ECB593;" width="49.04" height="44.61"/>
</g>
<path style="fill:#FFD0AD;" d="M119.384,205.489v-94.7c0-33.973,27.542-61.515,61.515-61.515h37.095
	c33.973,0,61.515,27.542,61.515,61.515v94.7c0,37.005-29.998,67.003-67.003,67.003h-26.119
	C149.382,272.492,119.384,242.494,119.384,205.489z"/>
<path style="fill:#ECB593;" d="M217.994,49.275h-31.107c33.973,0,61.515,27.542,61.515,61.515v94.7
	c0,36.168-28.662,65.626-64.509,66.94c0.829,0.03,1.658,0.063,2.494,0.063h26.119c37.005,0,67.003-29.998,67.003-67.003v-94.7
	C279.509,76.816,251.969,49.275,217.994,49.275z"/>
<g>
	<path style="fill:#D84C4C;" d="M99.518,207.032c-20.394,0-36.927-16.533-36.927-36.927s16.533-36.927,36.927-36.927h19.867v73.854
		L99.518,207.032L99.518,207.032z"/>
	<path style="fill:#D84C4C;" d="M299.376,133.178c20.394,0,36.927,16.533,36.927,36.927s-16.533,36.927-36.927,36.927h-19.867
		v-73.854H299.376z"/>
</g>
<circle cx="166.273" cy="165.33" r="9.462"/>
<circle cx="229.619" cy="165.33" r="9.462"/>
<path style="fill:#73AFD6;" d="M282.873,504.396V348.602h121.484c15.363,0,27.816-12.454,27.816-27.816v-99.07h-54.853v69.598
	H102.05c-20.627,0-37.348,16.722-37.348,37.348v175.736H282.873z"/>
<path style="fill:#FFFFFF;" d="M217.989,199.961c2.251,0,3.955,2.069,3.492,4.272c-1.968,9.354-10.267,16.377-20.206,16.377
	s-18.238-7.023-20.206-16.377c-0.463-2.202,1.241-4.272,3.492-4.272H217.989z"/>
<rect x="175.743" y="291.313" style="fill:#D3EFFD;" width="49.04" height="213.083"/>
<g>
	<path style="fill:#F7B737;" d="M189.75,111.711l27.964,15.055c6.242,3.361,14.01,0.331,16.326-6.37l0,0
		c1.828-5.287,7.195-8.493,12.717-7.596l32.751,5.319v-7.329c0-33.973-27.542-61.515-61.515-61.515h-37.095
		c-33.973,0-61.515,27.542-61.515,61.515v0.459l19.972,16.526c3.882,3.213,9.404,3.524,13.623,0.771l25.028-16.338
		C181.536,109.905,186.041,109.715,189.75,111.711z"/>
	<rect x="390.357" y="7.604" style="fill:#F7B737;" width="41.416" height="100.311"/>
</g>
<rect x="372.726" y="107.915" style="fill:#ACAAB1;" width="76.678" height="26.759"/>
<rect x="396.278" y="134.671" style="fill:#57545C;" width="29.574" height="36.447"/>
<polygon style="fill:#FFD0AD;" points="403.006,182.456 419.201,182.456 419.201,156.439 377.32,156.439 377.32,222.32 "/>
<g>
	<rect x="64.702" y="378.454" style="fill:#D3EFFD;" width="51.971" height="31.113"/>
	<rect x="307.91" y="291.313" style="fill:#D3EFFD;" width="31.113" height="57.293"/>
</g>
<g>
	<rect x="175.743" y="326.048" style="fill:#174F79;" width="49.04" height="36.002"/>
	<rect x="145.327" y="398.052" style="fill:#174F79;" width="110.004" height="36.002"/>
	<rect x="145.195" y="398.052" style="fill:#174F79;" width="30.548" height="106.344"/>
	<rect x="224.783" y="398.052" style="fill:#174F79;" width="30.548" height="106.344"/>
	<path style="fill:#174F79;" d="M109.066,504.396V364.878c0-4.199,3.404-7.604,7.604-7.604s7.604,3.405,7.604,7.604v139.518H109.066
		z"/>
</g>
<path d="M229.528,199.961c0-4.199-3.404-7.604-7.604-7.604h-41.298c-4.2,0-7.604,3.405-7.604,7.604
	c0,15.579,12.674,28.253,28.252,28.253C216.854,228.213,229.528,215.539,229.528,199.961z M190.681,207.565h21.188
	c-2.37,3.293-6.235,5.441-10.594,5.441C196.917,213.005,193.051,210.857,190.681,207.565z"/>
<path d="M449.409,100.309h-10.03V7.604c0-4.199-3.404-7.604-7.604-7.604h-41.416c-4.2,0-7.604,3.405-7.604,7.604v92.705h-10.03
	c-4.2,0-7.604,3.405-7.604,7.604v26.759c0,4.199,3.404,7.604,7.604,7.604h9.296v5.954h-4.702c-4.2,0-7.604,3.405-7.604,7.604v65.881
	v61.994h-30.697h-31.113h-75.522v-6.322c28.666-7.935,50.442-32.58,54.148-62.751h12.843c0.628,0,1.251-0.021,1.873-0.048
	c0.274,0.029,0.551,0.048,0.831,0.048c0.629,0,1.237-0.085,1.821-0.229c22.438-2.275,40.007-21.275,40.007-44.302
	c0-21.195-14.889-38.966-34.752-43.436v-14.754c0-60.956-49.591-110.548-110.547-110.548S88.06,50.959,88.06,111.915v15.16
	c-19.019,5.069-33.073,22.436-33.073,43.029c0,22.652,17.004,41.393,38.916,44.164c0.734,0.236,1.516,0.366,2.329,0.366
	c0.316,0,0.627-0.025,0.933-0.063c0.78,0.041,1.563,0.063,2.353,0.063h12.844c3.777,30.741,26.308,55.757,55.776,63.195v5.879
	h-66.088c-24.787,0-44.953,20.166-44.953,44.952v49.797v31.113v94.825c0,4.199,3.404,7.604,7.604,7.604h80.494h30.547h49.039h30.547
	h27.547c4.2,0,7.604-3.405,7.604-7.604v-148.19h17.428h31.113h65.337c19.531,0,35.421-15.889,35.421-35.42v-91.467h9.632
	c4.2,0,7.604-3.405,7.604-7.604v-87.044v-26.759C457.013,103.714,453.61,100.309,449.409,100.309z M424.172,15.208v15.225h-26.208
	V15.208H424.172z M397.964,45.641h26.208v54.668h-26.208V45.641z M380.33,115.517h10.03h41.416h10.03v11.551h-22.605h-29.575h-9.296
	V115.517z M411.597,142.276v1.361H397.23v-1.361H411.597z M183.345,390.452v-20.794h33.832v20.794H183.345z M183.345,333.656h33.832
	v20.794h-33.832V333.656z M217.177,318.448h-33.832v-19.531h33.832V318.448z M183.345,405.66h33.832v20.794h-33.832V405.66z
	 M287.113,140.781h7.363v58.646h-7.363V140.781z M328.7,170.105c0,12.542-7.918,23.266-19.016,27.447v-54.896
	C320.782,146.839,328.7,157.562,328.7,170.105z M198.607,16.575c52.571,0,95.339,42.77,95.339,95.34v13.659h-6.833V110.79
	c0-38.112-31.007-69.119-69.119-69.119h-37.095c-38.112,0-69.119,31.007-69.119,69.119v0.442c0,0.003,0,0.005,0,0.008v14.334h-8.512
	v-13.659C103.268,59.344,146.038,16.575,198.607,16.575z M271.865,109.175l-33.441-5.43c-3.645-0.595-7.197,1.526-8.405,5.021
	l-4.662,13.48l-38.02-20.469c-2.454-1.319-5.43-1.194-7.761,0.328l-33.158,21.644l-19.337-16.001
	c1.584-28.316,25.114-50.868,53.82-50.868h37.095C247.179,56.879,271.005,80.193,271.865,109.175z M103.836,140.781h7.946v58.646
	h-7.946V140.781z M70.195,170.105c0-12.321,7.642-22.885,18.433-27.218v54.435C77.837,192.989,70.195,182.426,70.195,170.105z
	 M126.988,205.489v-72.313v-5.766l14.048,11.625c1.399,1.158,3.121,1.746,4.848,1.746c1.442,0,2.887-0.409,4.156-1.237
	l34.065-22.236l41.912,22.563c1.965,1.057,4.293,1.2,6.369,0.388c2.076-0.81,3.693-2.492,4.421-4.599l5.492-15.882l29.605,4.807
	v8.589v72.313c0,32.753-26.646,59.399-59.399,59.399h-26.119C153.635,264.889,126.988,238.242,126.988,205.489z M212.506,280.096
	h4.67v3.612h-33.832v-3.612h3.043H212.506z M102.05,298.918h66.088v91.535h-22.943c-4.2,0-7.604,3.405-7.604,7.604v98.735h-13.317
	v-87.221v-31.113v-13.58c0-4.199-3.404-7.604-7.604-7.604s-7.604,3.405-7.604,7.604v5.976H72.306V328.66
	C72.306,312.26,85.649,298.918,102.05,298.918z M72.306,386.061h36.761v15.905H72.306V386.061z M72.306,417.175h36.761v79.617
	H72.306V417.175z M152.798,405.66h15.339v91.132h-15.339V405.66z M183.345,441.663h33.832v55.129h-33.832V441.663z M232.385,496.792
	V405.66h15.339v91.132H232.385z M282.873,340.998c-4.2,0-7.604,3.405-7.604,7.604v148.19h-12.339v-98.736
	c0-4.199-3.404-7.604-7.604-7.604h-22.943v-91.535h67.918v42.081L282.873,340.998L282.873,340.998z M315.511,340.998v-42.081h15.905
	v42.081H315.511z M424.57,320.786c0,11.145-9.067,20.212-20.213,20.212h-57.733v-42.081h30.697c4.2,0,7.604-3.405,7.604-7.604
	v-61.994h34.278h5.368V320.786z M426.805,151.24v-8.965h15v71.836h-9.632h-12.972h-34.278v-50.673h26.674v10.809h-8.592
	c-4.2,0-7.604,3.405-7.604,7.604s3.404,7.604,7.604,7.604h16.196c4.2,0,7.604-3.405,7.604-7.604v-26.017V151.24z"/>
<line style="fill:none;stroke:#000000;stroke-width:15;stroke-linecap:round;stroke-linejoin:round;stroke-miterlimit:10;" x1="175.743" y1="470.057" x2="224.783" y2="470.057"/>
</svg>